<mxfile host="app.diagrams.net" modified="2023-11-05T09:31:58.511Z" agent="Mozilla/5.0 (Windows NT 10.0; Win64; x64) AppleWebKit/537.36 (KHTML, like Gecko) Chrome/119.0.0.0 Safari/537.36" etag="QHIawQc8PJCgEwArOcrl" version="22.0.8" type="device">
  <diagram name="Page-1" id="J5k_QU9wk5emCvsI9DR_">
    <mxGraphModel dx="1050" dy="1666" grid="1" gridSize="10" guides="1" tooltips="1" connect="1" arrows="1" fold="1" page="1" pageScale="1" pageWidth="850" pageHeight="1100" math="0" shadow="0">
      <root>
        <mxCell id="0" />
        <mxCell id="1" parent="0" />
        <mxCell id="S1JzePBT5JaRMQqCuRKW-1" value="&lt;u&gt;id&lt;/u&gt;" style="ellipse;whiteSpace=wrap;html=1;" vertex="1" parent="1">
          <mxGeometry x="90" y="-220" width="100" height="70" as="geometry" />
        </mxCell>
        <mxCell id="S1JzePBT5JaRMQqCuRKW-20" style="edgeStyle=orthogonalEdgeStyle;rounded=0;orthogonalLoop=1;jettySize=auto;html=1;exitX=0.5;exitY=1;exitDx=0;exitDy=0;entryX=0;entryY=0.75;entryDx=0;entryDy=0;" edge="1" parent="1" source="S1JzePBT5JaRMQqCuRKW-2" target="S1JzePBT5JaRMQqCuRKW-8">
          <mxGeometry relative="1" as="geometry" />
        </mxCell>
        <mxCell id="S1JzePBT5JaRMQqCuRKW-43" style="edgeStyle=orthogonalEdgeStyle;rounded=0;orthogonalLoop=1;jettySize=auto;html=1;exitX=1;exitY=0.5;exitDx=0;exitDy=0;" edge="1" parent="1" source="S1JzePBT5JaRMQqCuRKW-2" target="S1JzePBT5JaRMQqCuRKW-4">
          <mxGeometry relative="1" as="geometry">
            <mxPoint x="430" y="-30" as="targetPoint" />
            <Array as="points">
              <mxPoint x="180" y="-30" />
              <mxPoint x="180" y="-30" />
            </Array>
          </mxGeometry>
        </mxCell>
        <mxCell id="S1JzePBT5JaRMQqCuRKW-55" style="edgeStyle=orthogonalEdgeStyle;rounded=0;orthogonalLoop=1;jettySize=auto;html=1;entryX=0;entryY=0.5;entryDx=0;entryDy=0;" edge="1" parent="1" source="S1JzePBT5JaRMQqCuRKW-2" target="S1JzePBT5JaRMQqCuRKW-1">
          <mxGeometry relative="1" as="geometry" />
        </mxCell>
        <mxCell id="S1JzePBT5JaRMQqCuRKW-57" style="edgeStyle=orthogonalEdgeStyle;rounded=0;orthogonalLoop=1;jettySize=auto;html=1;exitX=0.5;exitY=1;exitDx=0;exitDy=0;" edge="1" parent="1" source="S1JzePBT5JaRMQqCuRKW-2" target="S1JzePBT5JaRMQqCuRKW-44">
          <mxGeometry relative="1" as="geometry" />
        </mxCell>
        <mxCell id="S1JzePBT5JaRMQqCuRKW-58" style="edgeStyle=orthogonalEdgeStyle;rounded=0;orthogonalLoop=1;jettySize=auto;html=1;exitX=0.5;exitY=1;exitDx=0;exitDy=0;entryX=0;entryY=0.5;entryDx=0;entryDy=0;" edge="1" parent="1" source="S1JzePBT5JaRMQqCuRKW-2" target="S1JzePBT5JaRMQqCuRKW-5">
          <mxGeometry relative="1" as="geometry" />
        </mxCell>
        <mxCell id="S1JzePBT5JaRMQqCuRKW-2" value="Employee" style="rounded=1;whiteSpace=wrap;html=1;" vertex="1" parent="1">
          <mxGeometry x="5" y="-80" width="105" height="80" as="geometry" />
        </mxCell>
        <mxCell id="S1JzePBT5JaRMQqCuRKW-3" value="number" style="ellipse;whiteSpace=wrap;html=1;" vertex="1" parent="1">
          <mxGeometry x="160" y="-150" width="85" height="50" as="geometry" />
        </mxCell>
        <mxCell id="S1JzePBT5JaRMQqCuRKW-4" value="name" style="ellipse;whiteSpace=wrap;html=1;" vertex="1" parent="1">
          <mxGeometry x="220" y="-60" width="90" height="60" as="geometry" />
        </mxCell>
        <mxCell id="S1JzePBT5JaRMQqCuRKW-5" value="salary" style="ellipse;whiteSpace=wrap;html=1;" vertex="1" parent="1">
          <mxGeometry x="125" y="100" width="115" height="70" as="geometry" />
        </mxCell>
        <mxCell id="S1JzePBT5JaRMQqCuRKW-53" style="edgeStyle=orthogonalEdgeStyle;rounded=0;orthogonalLoop=1;jettySize=auto;html=1;exitX=1;exitY=0;exitDx=0;exitDy=0;entryX=0;entryY=0.5;entryDx=0;entryDy=0;" edge="1" parent="1" source="S1JzePBT5JaRMQqCuRKW-8" target="S1JzePBT5JaRMQqCuRKW-49">
          <mxGeometry relative="1" as="geometry" />
        </mxCell>
        <mxCell id="S1JzePBT5JaRMQqCuRKW-60" style="edgeStyle=orthogonalEdgeStyle;rounded=0;orthogonalLoop=1;jettySize=auto;html=1;exitX=1;exitY=0.5;exitDx=0;exitDy=0;" edge="1" parent="1" source="S1JzePBT5JaRMQqCuRKW-8" target="S1JzePBT5JaRMQqCuRKW-48">
          <mxGeometry relative="1" as="geometry" />
        </mxCell>
        <mxCell id="S1JzePBT5JaRMQqCuRKW-8" value="department" style="rounded=0;whiteSpace=wrap;html=1;" vertex="1" parent="1">
          <mxGeometry x="120" y="210" width="120" height="60" as="geometry" />
        </mxCell>
        <mxCell id="S1JzePBT5JaRMQqCuRKW-44" value="email" style="ellipse;whiteSpace=wrap;html=1;" vertex="1" parent="1">
          <mxGeometry x="145" width="80" height="70" as="geometry" />
        </mxCell>
        <mxCell id="S1JzePBT5JaRMQqCuRKW-48" value="number" style="ellipse;whiteSpace=wrap;html=1;" vertex="1" parent="1">
          <mxGeometry x="300" y="220" width="70" height="40" as="geometry" />
        </mxCell>
        <mxCell id="S1JzePBT5JaRMQqCuRKW-49" value="id" style="ellipse;whiteSpace=wrap;html=1;" vertex="1" parent="1">
          <mxGeometry x="320" y="170" width="57" height="30" as="geometry" />
        </mxCell>
        <mxCell id="S1JzePBT5JaRMQqCuRKW-50" value="name" style="ellipse;whiteSpace=wrap;html=1;" vertex="1" parent="1">
          <mxGeometry x="260" y="310" width="60" height="30" as="geometry" />
        </mxCell>
        <mxCell id="S1JzePBT5JaRMQqCuRKW-56" style="edgeStyle=orthogonalEdgeStyle;rounded=0;orthogonalLoop=1;jettySize=auto;html=1;entryX=0.08;entryY=0.752;entryDx=0;entryDy=0;entryPerimeter=0;" edge="1" parent="1" source="S1JzePBT5JaRMQqCuRKW-2" target="S1JzePBT5JaRMQqCuRKW-3">
          <mxGeometry relative="1" as="geometry" />
        </mxCell>
        <mxCell id="S1JzePBT5JaRMQqCuRKW-59" style="edgeStyle=orthogonalEdgeStyle;rounded=0;orthogonalLoop=1;jettySize=auto;html=1;exitX=1;exitY=0.75;exitDx=0;exitDy=0;entryX=0.111;entryY=0.417;entryDx=0;entryDy=0;entryPerimeter=0;" edge="1" parent="1" source="S1JzePBT5JaRMQqCuRKW-8" target="S1JzePBT5JaRMQqCuRKW-50">
          <mxGeometry relative="1" as="geometry" />
        </mxCell>
      </root>
    </mxGraphModel>
  </diagram>
</mxfile>
